HIERARCHY
ROOT hip
{
  OFFSET 0 0 0
  CHANNELS 6 Xposition Yposition Zposition Zrotation Yrotation Xrotation
  JOINT abdomen
  {
    OFFSET 0 20.6881 -0.73152
    CHANNELS 3 Zrotation Xrotation Yrotation
    JOINT chest
    {
      OFFSET 0 11.7043 -0.48768
      CHANNELS 3 Zrotation Xrotation Yrotation
      JOINT neck
      {
        OFFSET 0 22.1894 -2.19456
        CHANNELS 3 Zrotation Xrotation Yrotation
        JOINT head
        {
          OFFSET -0.24384 7.07133 1.2192
          CHANNELS 3 Zrotation Xrotation Yrotation
          JOINT leftEye
          {
            OFFSET 4.14528 8.04674 8.04672
            CHANNELS 3 Zrotation Xrotation Yrotation
            End Site
            {
              OFFSET 1 0 0
            }
          }
          JOINT rightEye
          {
            OFFSET -3.6576 8.04674 8.04672
            CHANNELS 3 Zrotation Xrotation Yrotation
            End Site
            {
              OFFSET 1 0 0
            }
          }
        }
      }
      JOINT rCollar
      {
        OFFSET -2.68224 19.2634 -4.8768
        CHANNELS 3 Zrotation Xrotation Yrotation
        JOINT rShldr
        {
          OFFSET -8.77824 -1.95073 1.46304
          CHANNELS 3 Zrotation Xrotation Yrotation
          JOINT rForeArm
          {
            OFFSET -28.1742 -1.7115 0.48768
            CHANNELS 3 Zrotation Xrotation Yrotation
            JOINT rHand
            {
              OFFSET -22.5879 0.773209 7.07136
              CHANNELS 3 Zrotation Xrotation Yrotation
              JOINT rThumb1
              {
                OFFSET -1.2192 -0.487915 3.41376
                CHANNELS 3 Zrotation Xrotation Yrotation
                JOINT rThumb2
                {
                  OFFSET -3.37035 -0.52449 3.41376
                  CHANNELS 3 Zrotation Xrotation Yrotation
                  End Site
                  {
                    OFFSET -1.78271 -1.18214 1.43049
                  }
                }
              }
              JOINT rIndex1
              {
                OFFSET -7.75947 0.938293 5.60832
                CHANNELS 3 Zrotation Xrotation Yrotation
                JOINT rIndex2
                {
                  OFFSET -2.54057 -0.884171 1.56538
                  CHANNELS 3 Zrotation Xrotation Yrotation
                  End Site
                  {
                    OFFSET -1.62519 -0.234802 1.16502
                  }
                }
              }
              JOINT rMid1
              {
                OFFSET -8.24714 1.18213 3.41376
                CHANNELS 3 Zrotation Xrotation Yrotation
                JOINT rMid2
                {
                  OFFSET -3.10165 -0.590103 1.0647
                  CHANNELS 3 Zrotation Xrotation Yrotation
                  End Site
                  {
                    OFFSET -2.48547 -0.328903 0.83742
                  }
                }
              }
              JOINT rRing1
              {
                OFFSET -8.82822 0.546677 1.51678
                CHANNELS 3 Zrotation Xrotation Yrotation
                JOINT rRing2
                {
                  OFFSET -2.60934 -0.819778 -0.0198488
                  CHANNELS 3 Zrotation Xrotation Yrotation
                  End Site
                  {
                    OFFSET -2.33842 -0.294052 0.168128
                  }
                }
              }
              JOINT rPinky1
              {
                OFFSET -8.27202 -0.0477905 -0.4584
                CHANNELS 3 Zrotation Xrotation Yrotation
                JOINT rPinky2
                {
                  OFFSET -1.82734 -0.647385 -0.700984
                  CHANNELS 3 Zrotation Xrotation Yrotation
                  End Site
                  {
                    OFFSET -1.69225 -0.51767 -0.607171
                  }
                }
              }
            }
          }
        }
      }
      JOINT lCollar
      {
        OFFSET 2.68224 19.2634 -4.8768
        CHANNELS 3 Zrotation Xrotation Yrotation
        JOINT lShldr
        {
          OFFSET 8.77824 -1.95073 1.46304
          CHANNELS 3 Zrotation Xrotation Yrotation
          JOINT lForeArm
          {
            OFFSET 28.1742 -1.7115 0.48768
            CHANNELS 3 Zrotation Xrotation Yrotation
            JOINT lHand
            {
              OFFSET 22.5879 0.773209 7.07136
              CHANNELS 3 Zrotation Xrotation Yrotation
              JOINT lThumb1
              {
                OFFSET 1.2192 -0.487915 3.41376
                CHANNELS 3 Zrotation Xrotation Yrotation
                JOINT lThumb2
                {
                  OFFSET 3.37035 -0.52449 3.41376
                  CHANNELS 3 Zrotation Xrotation Yrotation
                  End Site
                  {
                    OFFSET 1.78271 -1.18214 1.43049
                  }
                }
              }
              JOINT lIndex1
              {
                OFFSET 7.75947 0.938293 5.60832
                CHANNELS 3 Zrotation Xrotation Yrotation
                JOINT lIndex2
                {
                  OFFSET 2.54057 -0.884171 1.56538
                  CHANNELS 3 Zrotation Xrotation Yrotation
                  End Site
                  {
                    OFFSET 1.62519 -0.234802 1.16502
                  }
                }
              }
              JOINT lMid1
              {
                OFFSET 8.24714 1.18213 3.41376
                CHANNELS 3 Zrotation Xrotation Yrotation
                JOINT lMid2
                {
                  OFFSET 3.10165 -0.590103 1.0647
                  CHANNELS 3 Zrotation Xrotation Yrotation
                  End Site
                  {
                    OFFSET 2.48547 -0.328903 0.83742
                  }
                }
              }
              JOINT lRing1
              {
                OFFSET 8.82822 0.546677 1.51678
                CHANNELS 3 Zrotation Xrotation Yrotation
                JOINT lRing2
                {
                  OFFSET 2.60934 -0.819778 -0.0198488
                  CHANNELS 3 Zrotation Xrotation Yrotation
                  End Site
                  {
                    OFFSET 2.33842 -0.294052 0.168128
                  }
                }
              }
              JOINT lPinky1
              {
                OFFSET 8.27202 -0.0477905 -0.4584
                CHANNELS 3 Zrotation Xrotation Yrotation
                JOINT lPinky2
                {
                  OFFSET 1.82734 -0.647385 -0.700984
                  CHANNELS 3 Zrotation Xrotation Yrotation
                  End Site
                  {
                    OFFSET 1.69225 -0.51767 -0.607171
                  }
                }
              }
            }
          }
        }
      }
    }
  }
  JOINT rButtock
  {
    OFFSET -8.77824 4.35084 1.2192
    CHANNELS 3 Zrotation Xrotation Yrotation
    JOINT rThigh
    {
      OFFSET 0 -1.70687 -2.19456
      CHANNELS 3 Zrotation Xrotation Yrotation
      JOINT rShin
      {
        OFFSET 0 -36.8199 0.73152
        CHANNELS 3 Zrotation Xrotation Yrotation
        JOINT rFoot
        {
          OFFSET 0.73152 -45.1104 -5.12064
          CHANNELS 3 Zrotation Xrotation Yrotation
          End Site
          {
            OFFSET -1.1221 -3.69964 12.103
          }
        }
      }
    }
  }
  JOINT lButtock
  {
    OFFSET 8.77824 4.35084 1.2192
    CHANNELS 3 Zrotation Xrotation Yrotation
    JOINT lThigh
    {
      OFFSET 0 -1.70687 -2.19456
      CHANNELS 3 Zrotation Xrotation Yrotation
      JOINT lShin
      {
        OFFSET 0 -36.8199 0.73152
        CHANNELS 3 Zrotation Xrotation Yrotation
        JOINT lFoot
        {
          OFFSET -0.73152 -45.1104 -5.12064
          CHANNELS 3 Zrotation Xrotation Yrotation
          End Site
          {
            OFFSET 1.1221 -3.69964 12.103
          }
        }
      }
    }
  }
}
MOTION
Frames:	7
Frame Time:	0.03333
-5.6385 36.8664 34.5793 -18.339279 -40.573135 22.208031 62.10347 39.830599 76.494066 -76.86588 1.855773 -73.019082 130.090867 0.456599 -89.269559 -157.617262 23.962469 -63.649336 110.693228 -4.2927 6.207064 -52.048195 -2.982486 6.10408 -89.691844 8.521837 32.069283 114.430946 -42.571556 -26.75479 -2.731893 46.54489 134.963611 -9.693752 -47.22388 -34.655598 -173.145462 13.733132 133.547999 -24.471316 -64.152767 -20.097609 -142.728886 -69.870888 -176.258839 39.79376 -70.99968 93.384925 -107.303936 -13.490651 -108.846795 134.928137 62.682988 -63.414008 34.785994 89.388618 -43.279371 -143.935508 -53.839849 153.636778 -137.999062 -38.771898 -125.239609 -96.1282 65.901924 97.659884 61.960895 -29.793613 149.984858 93.161203 -41.764615 114.653488 29.41686 12.898877 79.842223 -26.838686 25.424089 -90.925223 32.644886 48.281409 92.621223 -149.164073 -6.86621 49.511816 62.218388 -15.584204 52.017158 -97.451952 40.101591 95.041468 144.921863 -16.047242 -140.783753 177.666495 83.79769 97.422022 -25.963737 40.903254 24.419528 -107.371465 -42.39795 -133.282616 45.701973 23.108236 -130.502644 -107.29846 -25.008782 -45.274033 -142.303717 65.20914 -40.405419 -129.689329 46.030651 -0.0 71.846752 17.560094 -24.014921 -97.166325 1.488891 -107.51732 53.725528 2.188132 22.195549 -108.224271 -44.874087 76.921887 100.998694 -29.561622 86.531793 118.738627 41.107486 100.85531
-5.507 30.7586 34.5604 -17.163663 -39.52558 21.236745 55.39001 35.496675 -120.476123 69.046184 17.02402 111.351586 150.923625 -5.696579 90.133549 158.057821 -40.454608 106.560787 109.856248 -1.653026 2.354306 -53.795292 -2.824855 5.565409 -110.13631 33.406432 47.609421 -38.47626 4.357198 165.168578 135.132803 -58.332158 -84.36899 -21.374217 4.624247 -22.507691 -169.202634 -0.352964 132.277159 -58.149198 4.755869 1.82968 -41.863617 58.655839 4.667986 131.826759 49.479143 -82.901744 167.455964 13.052536 -129.046293 159.037205 -10.089388 -130.997624 -93.338569 -63.468913 -88.857298 -153.677023 -54.241517 -130.561052 -154.434574 22.092972 -161.772873 166.416636 -71.051085 147.90219 -79.568549 19.169729 31.142022 -68.367824 -26.153298 -60.787425 83.57314 14.43358 -77.728579 -64.877793 70.14823 -20.483575 -129.456638 -12.498899 -171.553494 20.273086 73.445869 121.203792 116.407202 78.868424 -41.876892 89.717004 -48.264321 -90.78925 166.483677 -39.570125 -146.000134 -30.045747 49.967683 -71.263056 125.319893 -17.025769 157.467296 38.346417 -30.466898 -168.02508 -68.282178 -24.004054 -67.561592 179.070915 -22.081729 21.996492 -48.475805 8.567656 -21.725352 87.161331 18.056751 -77.461416 -82.991609 2.487337 -55.475303 -86.330423 -67.087005 -52.807395 1.035586 2.111792 -26.130122 17.431632 -78.833897 17.187262 -99.852657 71.513765 -29.830821 -117.929005 12.398469 -119.550007
-5.3595999999999995 24.0037 34.685500000000005 -18.526431 -39.130964 21.935507 32.764711 20.535066 -107.752018 56.454996 28.406698 100.28759 118.982721 -4.912772 -88.352729 -151.256671 18.095447 -51.825957 102.891413 -5.846712 7.332394 -62.758678 -0.362171 0.59381 -74.5807 6.859733 31.1209 -90.574031 52.880278 -135.07798 -175.060049 -60.980775 -55.362343 -13.813858 -34.943474 -35.897028 -0.707278 -4.7227 -28.014319 -7.167785 20.363362 -23.916779 -157.019706 -28.64509 154.646025 102.546052 6.599618 70.525111 -16.741097 3.676705 -77.143303 -72.553562 -29.410797 99.303731 -163.041189 -4.49683 165.627543 90.58917 -30.864877 97.888822 -139.328765 -3.587769 -178.850914 -30.531875 12.359672 92.5987 -91.394958 40.238532 36.205022 101.19521 23.922207 -100.420193 178.571181 -2.874438 118.769434 -145.354808 47.488161 101.6719 -106.581703 74.140319 173.098448 137.059619 -79.200877 38.094934 -27.268173 -41.770926 17.034669 -172.865466 -14.031829 176.831614 14.784503 39.863843 -30.16314 19.886815 29.299335 54.431893 -50.25268 33.438364 20.537609 113.560321 12.133899 -0.437257 14.346968 23.704718 -128.885813 32.228193 -9.528497 -175.075214 -155.261338 70.090658 -26.10743 -121.495263 45.89839 -0.0 83.173869 32.988392 115.204023 86.0535 16.005586 73.76671 15.690855 -0.943911 -20.904207 -39.352819 -83.697219 -180.0 -122.041082 -81.131373 -61.579613 76.502065 14.96344 108.222485
-5.2391 20.969099999999997 34.9292 -20.949567 -40.661007 23.718316 23.002827 14.158592 -4.951049 47.545606 -54.388286 44.434328 135.599611 9.640124 169.58647 -124.240116 -66.202972 -101.28926 96.494125 -3.056983 3.424499 -71.780339 7.434827 -10.261446 -138.950707 48.485522 97.711339 -64.552761 -18.545452 147.252984 -92.890991 40.780715 -102.472668 -166.539723 -58.854664 143.885778 6.263242 7.564375 -16.753266 -131.661346 -51.296013 -179.938263 -28.741622 66.782266 7.61346 -28.43706 -66.355878 -127.600439 167.096039 10.738816 -153.310602 55.079264 45.356193 -124.243666 -77.330025 -81.647735 -85.635293 -55.962801 21.98706 -3.802905 -150.39592 3.579408 -167.79732 175.433879 -34.321118 141.998055 92.762499 -19.708075 154.30946 37.619163 -9.949855 37.580726 67.756528 -16.399445 122.996211 -34.173002 19.940856 -63.175857 140.636414 75.211614 -78.057405 146.168846 -16.58481 -2.02267 -104.528552 -63.317418 -2.617865 -82.266582 4.492719 -134.760468 -39.840241 -4.55968 -8.615486 -179.020784 4.215979 -112.029587 -54.597591 19.845026 26.901658 -21.755174 -23.139601 -98.964615 36.750728 4.874905 -159.241287 25.806259 7.776352 -139.792737 -160.498978 69.878938 -20.664337 -118.40237 44.646687 -180.0 -68.158108 -44.569687 7.638701 -112.054185 -11.320714 -44.4994 5.773894 8.868359 -33.260692 91.31801 -79.422679 -88.704378 78.997358 -74.011824 -132.554258 56.000791 -32.63002 67.231883
-5.0665000000000004 22.8036 35.209 -21.382839 -41.353945 24.639316 20.433283 8.210986 110.974137 -66.345513 -4.35607 -100.444662 149.253907 1.048226 69.2032 96.389654 -17.221056 91.292107 58.474024 -24.429364 -42.288071 -61.340949 11.70646 -19.614221 -59.846637 27.982976 30.265467 55.003228 -47.506112 -60.688461 -164.405313 -71.680874 40.072891 -150.059439 22.752428 111.350139 -20.167281 43.259056 2.165817 -130.056679 -20.007919 138.558644 -148.966118 5.932616 144.282534 -56.584281 -15.892262 84.341388 -37.067963 -3.766885 -68.111988 119.747083 -32.081411 28.022104 -83.040381 -54.691137 -92.289698 -19.178024 12.478707 -3.145183 -22.185816 74.160882 41.02592 -84.070184 21.810338 -154.16503 98.374085 -29.728451 153.772509 -161.586821 -14.443269 142.960899 -148.96815 55.146473 -103.961135 -67.970284 -11.929803 -121.573701 -0.228104 -71.193433 2.722834 63.489269 -24.739378 149.87362 123.539165 -45.276269 -122.415902 0.508566 26.456282 -105.952128 121.312048 -2.881487 -129.132797 172.749583 25.538772 -164.792369 62.045349 -47.527682 105.622484 -116.330255 28.314831 42.896387 69.886705 -21.990438 -171.794561 60.329655 13.954671 -124.091096 -5.105171 3.246142 6.874948 42.148775 -6.886342 93.002981 66.576246 12.285833 -166.738755 138.428735 12.543025 38.418258 5.08554 8.714599 -30.428485 73.367576 -82.736933 73.493742 -112.388815 81.67001 -145.222419 -80.978182 3.133859 -76.152926
-4.7502 27.386300000000002 35.4742 -21.299546 -41.547179 24.908149 25.093887 12.037742 -0.0 61.353909 -55.683273 49.26538 128.667735 -10.096535 0.105832 130.913884 28.890743 56.388001 101.118797 1.298697 -1.578744 -56.570666 4.608777 -8.553379 76.582918 -52.74606 103.806312 -99.862028 17.17553 -4.982002 167.440283 3.660924 -60.587955 -16.050165 -14.639005 -24.577681 81.256145 -64.798585 22.01812 145.993293 -35.102066 111.219083 -145.179135 -50.60156 159.644271 -174.681188 30.135289 44.39752 168.407723 17.965727 -154.345479 -21.778497 7.968938 -48.844528 -6.093766 6.004363 -27.826793 -122.858653 -65.344852 -146.19499 -14.515548 -24.932283 -3.26563 179.227375 9.362695 -97.491716 177.729048 70.584997 130.140167 116.598565 23.218656 -83.821667 -2.660648 -55.042735 101.82939 -64.6206 -5.743439 -105.192952 44.152007 -0.216282 39.113823 -70.943336 36.015375 2.647732 115.979647 -45.761998 -132.305258 154.049617 -51.845312 -74.669253 129.518222 -40.715937 -131.744648 128.145746 79.571328 -131.39565 -43.960373 53.392455 38.62805 -72.573804 0.380841 -93.153366 99.531048 -65.499806 -169.726105 100.860975 36.263798 -101.763067 -140.786051 65.721062 -41.833579 -124.02984 45.098066 0.0 66.082433 25.091737 41.02982 -159.656435 -32.941644 -139.016066 76.453385 8.235113 26.54777 -128.839188 -38.396983 38.524665 85.923333 19.479356 -130.774341 79.056247 -25.89654 80.359143
-4.3025 33.1241 35.7602 -21.493828 -41.296364 25.124096 31.585814 12.013447 -97.313028 69.332748 41.35489 83.046166 108.058027 5.754056 -89.264819 -152.814615 25.262457 -44.580761 117.516508 -2.736168 4.509059 -54.171965 -3.659069 7.14791 -109.441139 4.82253 51.680287 123.136157 -9.304932 -26.006357 0.416165 15.174258 121.282683 -8.462361 -38.002866 -29.779 -142.818253 32.987998 97.815859 -177.843372 -54.563384 66.804343 -125.374686 43.423427 113.870178 -143.810277 -77.538099 63.600685 -91.769273 -33.788763 -107.05554 32.731512 68.417121 20.010532 51.558273 69.495103 -49.909367 24.546723 -87.893956 -4.747009 -139.998589 26.494282 -154.566358 -148.719287 -51.035681 -175.405587 68.392766 -28.897572 138.629795 177.396264 -7.558721 126.512643 -125.061551 82.502087 -143.887103 -64.810746 -16.843951 -109.63862 19.321815 74.989635 63.018235 -172.464943 -1.704993 9.604336 117.8139 -61.949453 -140.994164 -175.250293 -38.721392 -56.012324 116.618773 -41.331142 -138.609196 -21.623097 68.492858 11.643984 -50.746476 62.609404 66.898553 126.427833 -28.655109 -59.166944 -136.859839 -72.429015 -62.854103 -161.971671 0.77575 159.736355 45.734949 35.686612 46.659475 -33.241152 -16.639839 113.601024 45.986076 -54.788302 162.675972 124.232398 -16.896242 56.077384 -54.440031 54.106758 -49.231123 131.362348 -41.778263 180.0 91.252349 -15.479459 179.821485 -132.168135 62.043903 -79.506957
